#!OML:ASF I:\Actors\actors\Patient Classification 1\Patient 1\Session 1\Subject1.ASF
:FULLY-SPECIFIED
:DEGREES
339
root 0.0022371 17.6393 8.35962 12.6354 -16.823 -6.78936
lowerback 7.15869 -5.18571 1.3723
upperback -7.86864 -6.27062 6.31442
thorax -11.9855 -2.81788 7.24055
lowerneck -15.4021 1.87434 4.14143
upperneck 16.3697 -1.27338 13.8296
head 7.768 0.92635 3.76989
rclavicle 1.78409e-014 5.56597e-014
rhumerus -25.5751 42.693 -56.7817
rradius 132.471
rwrist -15.9405
rhand 14.1011 -47.1018
rfingers 7.12502
rthumb 39.0048 -72.6204
lclavicle 1.78409e-014 5.56597e-014
lhumerus 24.419 -23.4123 28.426
lradius 69.7786
lwrist -327.868
lhand -10.3418 -25.2428
lfingers 7.12502
lthumb 15.6545 4.14383
rfemur -12.9785 24.0099 17.395
rtibia 8.29529
rfoot -10.0099 -12.2824
rtoes -8.46764
lfemur 1.75125 -27.6398 -15.9075
ltibia -1.08206
lfoot -24.9844 48.5285
ltoes 16.4992
340
root 0.0274479 17.6215 8.40465 13.2164 -19.371 -7.02548
lowerback 6.75745 -4.53481 2.14719
upperback -7.83426 -5.31939 6.20767
thorax -11.8835 -2.43937 6.48991
lowerneck -15.2923 2.03247 3.77562
upperneck 16.361 -0.983727 13.9729
head 7.72627 1.04904 3.90759
rclavicle 1.95554e-014 2.14687e-014
rhumerus -28.0695 41.8369 -58.1112
rradius 132.452
rwrist -15.3015
rhand 13.3512 -46.9279
rfingers 7.12502
rthumb 38.2975 -72.6456
lclavicle 1.95554e-014 2.14687e-014
lhumerus 19.9427 -22.4509 29.6443
lradius 79.6298
lwrist -317.177
lhand -6.01418 -22.719
lfingers 7.12502
lthumb 19.8187 6.2906
rfemur -14.3954 24.3187 16.9519
rtibia 9.23469
rfoot -10.0634 -9.91374
rtoes -9.21502
lfemur 2.41493 -27.9078 -16.6407
ltibia -1.5711
lfoot -28.4225 50.5232
ltoes 19.6877
341
root 0.0467917 17.6114 8.4539 13.8954 -21.8591 -7.3297
lowerback 6.26925 -3.92817 2.98131
upperback -7.85383 -4.44166 6.01935
thorax -11.7662 -2.10535 5.62951
lowerneck -14.7973 2.12275 3.67566
upperneck 16.2406 -0.831845 14.2358
head 7.58999 1.11141 4.01447
rclavicle 2.00773e-014 7.15625e-014
rhumerus -30.7647 40.8305 -59.8654
rradius 132.441
rwrist -14.9645
rhand 10.4245 -44.561
rfingers 7.12502
rthumb 35.5288 -70.9919
lclavicle 2.00773e-014 7.15625e-014
lhumerus 15.6753 -20.7828 30.8593
lradius 88.6215
lwrist -312.765
lhand -3.87171 -19.3112
lfingers 7.12502
lthumb 21.8772 9.47202
rfemur -15.7632 24.8272 16.55
rtibia 9.9672
rfoot -10.1392 -7.80185
rtoes -9.89967
lfemur 2.94613 -28.0939 -17.2048
ltibia -2.03645
lfoot -32.1878 52.1375
ltoes 22.7758
342
root 0.0551734 17.5972 8.50375 14.6068 -24.1238 -7.44619
lowerback 5.62387 -3.45103 3.49498
upperback -7.96088 -3.80207 5.75462
thorax -11.5897 -1.86351 4.90182
lowerneck -14.5208 2.22891 3.63031
upperneck 16.7112 -0.816913 14.6772
head 7.70073 1.16835 4.18308
rclavicle 1.063e-013 7.95139e-015
rhumerus -33.3773 39.9328 -61.8905
rradius 132.502
rwrist -15.3025
rhand 10.4413 -44.6049
rfingers 7.12502
rthumb 35.5447 -71.032
lclavicle 1.063e-013 7.95139e-015
lhumerus 11.6923 -18.9751 31.6492
lradius 95.4799
lwrist -317.043
lhand -2.86008 -23.2122
lfingers 7.12502
lthumb 22.8482 5.45435
rfemur -17.0803 25.4275 15.9358
rtibia 10.4445
rfoot -10.1689 -6.1716
rtoes -10.2688
lfemur 3.20158 -28.2184 -17.7897
ltibia -2.37272
lfoot -35.7434 53.3348
ltoes 25.3155
343
root 0.0567843 17.5805 8.55189 15.0685 -26.044 -7.24767
lowerback 5.10185 -3.05624 3.63011
upperback -8.11642 -3.31543 5.42213
thorax -11.4982 -1.66302 4.35788
lowerneck -14.2014 2.31144 3.66483
upperneck 17.2393 -0.842521 15.0278
head 7.82518 1.2049 4.3059
rclavicle 3.00662e-015 3.10104e-014
rhumerus -35.9982 39.2027 -63.7739
rradius 132.498
rwrist -15.8241
rhand 12.9615 -46.8494
rfingers 7.12502
rthumb 37.9295 -72.6677
lclavicle 3.00662e-015 3.10104e-014
lhumerus 8.24722 -17.1257 32.0723
lradius 102.012
lwrist -319.414
lhand -4.04939 -23.2086
lfingers 7.12502
lthumb 21.7065 5.59447
rfemur -18.0471 25.9643 15.115
rtibia 10.6261
rfoot -10.093 -4.99557
rtoes -10.7277
lfemur 3.47996 -28.5458 -18.7085
ltibia -2.6114
lfoot -39.1715 54.2668
ltoes 27.4178
